<svg width="58" height="54" viewBox="0 0 58 54" fill="none" xmlns="http://www.w3.org/2000/svg">
<defs>
  <linearGradient id="primaryGradient" x1="0%" y1="0%" x2="100%" y2="0%">
    <stop offset="0%" stop-color="#3f4299" />
    <stop offset="100%" stop-color="#4f46e5" />
  </linearGradient>
</defs>
<path d="M48.2699 47.1773C44.3254 50.4427 39.4985 52.6439 34.3094 53.5436C29.1204 54.4433 23.766 54.0075 18.8234 52.283C13.8808 50.5585 9.53747 47.6108 6.26151 43.7576C2.98555 39.9044 0.901223 35.2919 0.233197 30.4172C-0.434829 25.5424 0.33878 20.5904 2.47064 16.0948C4.6025 11.5993 8.01175 7.73066 12.3309 4.90597C16.6501 2.08129 21.7154 0.407679 26.9809 0.0655233C32.2463 -0.276632 37.5122 0.725648 42.211 2.96433L37.1686 12.1384C34.2632 10.7541 31.0072 10.1344 27.7515 10.346C24.4958 10.5575 21.3639 11.5924 18.6932 13.3389C16.0226 15.0855 13.9146 17.4775 12.5965 20.2572C11.2783 23.0369 10.8 26.0988 11.213 29.1129C11.6261 32.127 12.9148 34.979 14.9404 37.3615C16.966 39.744 19.6516 41.5666 22.7077 42.6329C25.7637 43.6992 29.0744 43.9687 32.2829 43.4124C35.4914 42.856 38.4759 41.495 40.9149 39.476L48.2699 47.1773Z" fill="url(#primaryGradient)"/>
<line x1="36" y1="15.5" x2="53" y2="15.5" stroke="#999595"/>
<line x1="43.5" y1="16" x2="43.5" y2="24" stroke="#373535"/>
<rect x="33" y="24" width="14" height="7" fill="#822A2A"/>
<ellipse cx="32.5" cy="27.5" rx="2.5" ry="3.5" fill="black" fill-opacity="0.53"/>
</svg>
