<svg xmlns="http://www.w3.org/2000/svg" viewBox="0 0 64 64" width="64" height="64">
  <rect width="64" height="64" fill="#6366f1"/>
  <g transform="translate(5.87,10.16) scale(0.78)">
    <path d="M41 21 C41 15.5 35.5 12.5 28.5 12.5 C21.5 12.5 16.5 15.5 16.5 20.5 C16.5 25 20 26.7 28.5 27.6 C37 28.5 46 29.5 46 35 C46 40.5 40.5 43.5 33 43.5 C26 43.5 20.5 41 19 36" fill="none" stroke="#ffffff" stroke-width="8" stroke-linecap="round" stroke-linejoin="round"/>
    <path d="M49 8.5 L50.5 12.5 L54.5 14 L50.5 15.5 L49 19.5 L47.5 15.5 L43.5 14 L47.5 12.5 Z" fill="#ffffff"/>
  </g>
</svg>
